<svg xmlns="http://www.w3.org/2000/svg" width="400" height="574" viewBox="0 0 400 574">
    <g fill="none" fill-rule="evenodd" transform="translate(0 4)">
        <path fill="#231F20" fill-rule="nonzero" d="M144.638 495.596s10.451 52.09 22.01 59.995c11.638 7.904 56.766 6.876 60.17-16.442 3.404-23.397-8.471-69.796-8.471-69.796s-29.452 36.123-73.709 26.243z"/>
        <path fill="#23D3D3" fill-rule="nonzero" d="M21.022 441.062c-2.136.869-3.956 2.526-4.748 5.052-3.323 2.92-2.848 8.681.08 11.602 1.582 1.578 3.481 2.288 5.46 2.367 6.013 4.262 15.35 5.84 21.523 7.972 12.502 4.262 24.847 9.155 38.22 10.102 10.84.79 22.947-1.184 32.047-7.498 11.078-7.656 15.747-19.889 19.862-32.122 4.985-14.838 8.23-30.07 10.208-45.618 0-.316.079-.553.079-.868 2.848-2.684 3.877-6.788 1.74-10.34-2.136-3.63-6.33 1.263-10.84 2.368-9.891 2.368-20.02-1.657-27.696-7.892-9.1-7.42-13.69-18.863-16.854-29.834-.08-.394-.238-.789-.396-1.105-.95-3.472-4.273-6.866-8.071-6.392-9.812 1.262-19.625 1.5-29.437.631-5.539-2.368-12.186 1.736-11.71 9.629.553 8.76.87 16.732.395 25.177-.95 17.363 1.028 45.697-19.862 66.77zM397.798 60.527c-.239-4.103-3.337-7.575-7.628-7.575-1.986 0-3.972.868-5.482 2.289l-.238-11.047c-.239-7.496-9.296-9.231-13.349-5.207-.079-2.525-.158-4.971-.317-7.496-.16-4.103-3.417-7.575-7.628-7.575-3.973 0-7.786 3.472-7.627 7.575.079 1.183.079 2.446.158 3.63-4.21-3.71-12.871-1.894-12.95 5.444-.557 49.314-1.113 98.629-1.59 147.943-.079 9.784 15.176 9.784 15.256 0v-2.21c.317.08.635.08.953.08 3.655 0 6.038-2.288 7.071-5.287 1.51 1.657 3.814 2.762 5.88 2.762 4.529 0 7.15-3.472 7.627-7.575 3.258-25.564 5.324-51.287 6.277-77.088 1.113 37.794.318 75.668-2.224 113.463-.318 4.103 3.734 7.574 7.627 7.574 4.37 0 7.39-3.471 7.628-7.574 3.496-50.577 3.655-101.391.556-152.126z"/>
        <path fill="#23D3D3" fill-rule="nonzero" d="M364.46 94.421c-2.098-3.93-5.164-7.38-8.553-10.589-2.501-4.171-5.487-8.102-9.037-11.471-3.389-3.29-8.069-1.043-9.36 2.326-1.21 1.283-1.856 3.129-1.372 5.214.727 3.29-4.84 5.295-7.1 6.338-5.568 2.567-2.098 10.027 2.824 10.428 5.81.481 11.458-.561 16.702-2.968.404.802.888 1.685 1.291 2.567 2.663 5.535 7.02 13.076 5.568 19.413-1.614 7.14 8.472 9.707 10.893 2.968 2.904-7.861 2.178-16.846-1.856-24.226z"/>
        <path fill="#23D3D3" fill-rule="nonzero" d="M365.874 112.784c-.802-2.91-2.006-5.664-3.45-8.18.16-1.023.08-2.125-.481-3.305-2.167-4.64-6.66-7.237-11.474-8.574-2.086-1.258-4.333-2.281-6.74-3.146-2.407-.866-4.333 0-5.536 1.416-2.086.078-4.654.236-5.456-.708-1.846-2.36-5.938-1.888-7.943 0-2.407 2.28-1.846 5.427 0 7.787 3.61 4.484 8.906 3.54 13.96 3.776 1.926.079 4.494.236 6.9.787 4.574 2.989 7.864 7.63 9.308 12.979 1.926 6.922 12.758 4.012 10.912-2.832zM218.454 464.38s-18.922-13.133-65.836 15.565c0 0 20.642 11.312 65.836-15.564z"/>
        <path fill="#231F20" fill-rule="nonzero" d="M144.144 153.783s9.465-52.92-54.427-52.13c-18.142.236-48.905 24.485-43.383 48.18 0 0-33.13 21.722 4.732 73.457l12.621 7.899 1.183-13.823s-13.41 2.37-15.776-15.797c-2.366-18.167 11.044-4.739 11.044-4.739s10.096-8.373 13.172-21.168c1.5-6.32 2.84-15.797 1.815-21.484-1.184-6.32-4.181-10.584-7.415-14.139 5.6 1.58 23.98 1.58 37.862 3.792 14.908 2.448 28.318 5.608 38.572 9.952z"/>
        <path fill="#202020" fill-rule="nonzero" d="M45.003 146.584c.08-.079.16-.079.32-.079.721-.079 1.602.079 2.243.63.56.552.88 1.498.48 3.075 0 .079-.08.315-.16.394-2.082 1.498-4.164 3.153-6.005 4.966-3.524 3.469-6.566 7.49-8.648 11.904-2.002 4.335-3.123 9.301-3.523 14.189-.4 4.966-.16 9.932.96 14.74.481 2.444 1.282 4.73 2.243 6.938.24.551.48 1.103.8 1.655l.961 1.655c.64 1.104 1.201 2.208 1.922 3.154 2.722 4.178 6.085 7.883 10.009 10.957l1.441 1.182 1.521 1.025.801.552.8.473c.561.315 1.042.63 1.602.946 2.162 1.182 4.484 2.207 6.806 2.916.56.237 1.201.316 1.762.552l.88.237c.641.157 1.362.236 1.922.394.4.552.721 1.025 1.121 1.576l.32.631.24.473.962 1.892c1.2 2.522 2.002 5.281 2.482 8.04l.24 1.262.08.63.16 1.262c0 .867.08 1.734.08 2.601 0 0 0 .315-.08.788 0 .552-.16 1.262-.24 2.129-.4 2.522-1.281 6.621-2.322 9.774-1.361 4.336-2.402 5.44-2.722 4.809-.32-.552-.16-2.838.08-5.518-.08.158.08-1.182.24-3.153.16-1.892.24-4.415.24-6.385v-2.365-.946c-.08-.71 0-1.419-.08-2.128l-.08-1.104-.16-1.025c-.08-.552-.24-1.182-.32-1.734-.56-2.286-1.362-4.493-2.483-6.543-.16-.236-.24-.473-.4-.71l-.08-.078-.72-.158c-1.362-.315-2.643-.788-4.004-1.261-1.281-.473-2.563-1.025-3.764-1.577-1.2-.63-2.482-1.182-3.603-1.97-2.402-1.34-4.564-2.996-6.646-4.651-4.163-3.469-7.687-7.647-10.57-12.14-1.36-2.286-2.722-4.572-3.843-7.095-1.04-2.522-1.761-5.123-2.322-7.804-.56-2.601-.8-5.281-.96-7.961-.08-2.68-.08-5.36.16-7.962.24-2.68.64-5.282 1.28-7.883.641-2.601 1.522-5.203 2.723-7.646 2.322-4.888 5.685-9.302 9.529-13.086 1.761-1.97 3.923-3.784 6.325-5.44zM139.159 152.289c-.08-.08-.08-.16 0-.318.08-.635.4-1.509 1.042-1.985.641-.556 1.603-.794 3.206 0 .08 0 .32.159.32.238 1.203 2.541 2.244 5.162 3.206 7.783 2.966 8.02 5.13 16.438 6.172 25.015.48 4.289.64 8.656.4 12.945-.24 4.368-.881 8.656-2.083 12.944-1.122 4.289-3.206 8.418-5.771 12.071-2.565 3.653-5.77 6.83-9.217 9.53-3.447 2.78-7.214 5.003-11.14 6.989l-1.524.714c-.4.16-.721.318-1.122.556-.721.318-1.523.715-2.324 1.033 0 0-1.844.635-4.408 1.35-2.565.714-5.771 1.35-8.496 1.667-4.569.636-6.011.239-5.61-.317.4-.556 2.484-1.35 5.129-2.383-.32 0 2.805-1.032 5.931-2.303 3.126-1.27 6.091-2.78 6.091-2.78.722-.317 1.443-.635 2.084-.952.32-.16.722-.318 1.042-.477l.802-.397c.48-.238.881-.476 1.362-.715 3.527-1.826 6.893-4.05 9.939-6.591 6.09-5.003 10.74-11.595 12.583-19.139 2.004-7.624 2.164-15.724 1.282-23.665-.961-7.942-2.965-15.804-5.85-23.428-.882-2.541-1.924-5.003-3.046-7.385z"/>
        <path fill="#202020" fill-rule="nonzero" d="M108.37 240.758c0-.16 0-.16.159-.32.798-1.041 2.714-2.403 4.63.32 0 .08.159.32.159.4-.24 2.724-.4 5.447-.48 8.09 0 1.04-.079 2.082-.079 3.043 0 1.442 0 2.963.16 4.325v.32c0 .16 0 .48.08.801 0 .4.08.64.16 1.121.079.48.239 1.041.398 1.602.32 1.121.719 2.323 1.277 3.364.639 1.04 1.517 2.002 2.475 2.723 1.676 1.281 3.033 1.922 3.671 2.402.719.48.878.801.559.961-.559.32-2.953.16-5.827-1.12.16.08-.638-.241-1.835-1.042-.56-.4-1.198-.961-1.836-1.682-.639-.72-1.197-1.521-1.676-2.402-.48-.881-.878-1.762-1.198-2.483-.16-.4-.319-.801-.479-1.121-.16-.481-.239-.881-.399-1.282-.16-.72-.319-1.361-.319-1.762-.08-.4-.08-.64-.08-.64-.08-1.442-.16-2.804-.16-4.165 0-1.121 0-2.162.08-3.204.24-2.643.4-5.446.56-8.249z"/>
        <path fill="#202020" fill-rule="nonzero" d="M108.552 259.17c.08-.08.16-.08.398-.08.717 0 1.593.158 2.23.786.558.628.718 1.57.32 3.062 0 .079-.08.314-.16.393-1.035.707-2.071 1.413-3.107 2.198-.478.393-1.035.786-1.513 1.257l-.717.628-.319.314-.16.157-.079.079-.08.078-.159.236c-5.019 4.868-8.763 10.992-10.993 17.588-.16.392-.319.785-.399 1.256l-.318 1.256-.638 2.513-.478 2.591c-.159.864-.318 1.728-.398 2.67l-1.354 10.914c-.478 3.612-.876 7.302-1.275 10.914-.159 1.806-.398 3.612-.557 5.418l-.08 1.335-.08 1.256-.08 1.413v1.178c0 .079 0 .157-.079.157l-1.354.236c-.876.157-1.832.235-2.709.392-7.488.943-14.976 1.57-22.624 1.492-3.186-.078-6.452-.235-9.639-.707-1.593-.235-3.266-.55-4.86-1.02-.796-.236-1.672-.471-2.469-.864-.239-.079-.637-.236-.956-.393l-1.035-.47-.558-.236-.24-.157c-.079-.079-.079-.157-.079-.236l-.159-1.178-.16-1.177-.079-.707-.08-1.178c-.08-.785-.159-1.57-.159-2.355l-.239-4.712c-.08-3.14-.08-6.281.16-9.422.318-6.281 1.115-12.563 2.947-18.766.876-3.062 2.071-6.124 3.585-9.03 1.593-2.905 3.584-5.653 6.134-8.008 2.549-2.277 5.735-4.083 9.081-5.026l.16-.078c.398 2.12-.797-4.79.876 4.79h-.16c-.159 0-.318 0-.478.078-.318.079-.637.079-1.035.236-.637.157-1.354.392-1.992.55-.637.235-1.354.47-1.991.784-.638.314-1.275.55-1.912.943-2.47 1.334-4.78 3.14-6.692 5.26-.239.236-.478.472-.717.786l-.637.863c-.398.55-.876 1.1-1.275 1.728-.717 1.256-1.593 2.355-2.15 3.769l-.957 1.963c-.238.706-.557 1.334-.796 2.041-.24.707-.558 1.335-.717 2.042l-.558 2.12-.557 2.12-.478 2.277-.956 4.475c-1.195 5.968-2.31 12.014-3.187 18.06-2.15 14.526-3.346 29.13-3.266 43.735 0 3.611.16 7.302.16 11.07.08 3.691.08 7.46 0 11.15-.16 3.77-.399 7.538-.957 11.307-.557 3.769-1.513 7.538-2.788 11.15-1.274 3.612-2.868 7.066-4.46 10.443-1.674 3.298-3.267 6.674-5.02 9.972-.876 1.649-1.752 3.297-2.708 4.946-.876 1.57-1.753 3.22-2.55 4.79l-.637 1.335c-.08.078-.159.235-.159.314l-.16.157-.159.235c-.08.158-.239.315-.318.472-.398.706-.717 1.413-1.036 2.12-.08.157-.16.392-.239.55l-.08.156v.079c0 .078-.08.157-.08.235-.318 1.1-.557 2.277-.557 3.377v.942c0 .628 0 1.492.319 2.512.239 1.021.717 2.12 1.354 3.22.637 1.099 1.514 2.12 2.39 3.062.717.785 1.434 1.335 1.992 1.806.557.471.956.864 1.274 1.178.638.628.717.942.399 1.02-.638.157-2.948-.392-5.497-2.041.08.078-.558-.314-1.593-1.178-1.036-.864-2.31-2.198-3.346-3.847-1.036-1.65-1.673-3.612-1.912-5.104-.16-.785-.16-1.413-.16-1.806v-.707c.08-.785.16-1.491.32-2.277.079-.392.159-.706.238-1.099l.16-.55.08-.235.238-.785c.319-.942.797-1.885 1.275-2.748.239-.472.478-.864.796-1.335l.16-.236.318-.628c.797-1.649 1.673-3.22 2.55-4.79 1.752-3.14 3.425-6.203 5.018-9.343l2.39-4.711 1.195-2.356 1.115-2.356c1.434-3.14 2.709-6.36 3.585-9.657 1.912-6.517 2.47-13.427 2.55-20.415.079-3.534 0-6.988-.08-10.522-.08-3.533-.16-7.145-.16-10.678 0-14.29 1.275-28.581 3.346-42.715.876-6.124 1.992-12.249 3.266-18.295.319-1.491.638-3.062.956-4.554l.478-2.277.638-2.355.637-2.356c.239-.785.557-1.492.876-2.277.319-.785.558-1.492.876-2.277l1.116-2.198c.637-1.492 1.673-2.827 2.47-4.24.477-.707 1.035-1.335 1.513-1.963l.796-1.021c.24-.314.558-.628.877-.942 2.23-2.513 4.939-4.633 7.886-6.203.717-.393 1.514-.786 2.31-1.1l2.39-.942c.797-.235 1.673-.55 2.47-.707.398-.078.876-.157 1.274-.235.24-.079.478-.079.717-.079.08 0 .24 0 .399-.078h.08c1.672 9.58.477 2.67.796 4.79l-.16.078c-2.628.785-5.098 2.12-7.09 4.004-2.07 1.806-3.743 4.162-5.098 6.675-1.354 2.512-2.39 5.26-3.266 8.087-1.673 5.653-2.47 11.62-2.708 17.667-.16 2.983-.16 6.046-.08 9.03.08 1.491.08 2.983.16 4.554.079.785.079 1.491.159 2.277l.08 1.099.079.471h.08c.637.236 1.274.471 1.991.707 1.354.392 2.788.628 4.302.863 2.947.393 5.975.628 9.002.628 7.25.079 14.658-.47 21.907-1.413h.08l.159-1.492c.16-1.884.319-3.69.558-5.496.398-3.69.796-7.302 1.274-10.993l1.354-10.914c.08-.863.32-1.884.478-2.826l.478-2.827.717-2.827.399-1.413c.159-.471.318-.942.478-1.335 2.47-7.302 6.612-14.133 12.188-19.551l.239-.236.08-.078.08-.079.238-.157.399-.392.796-.707 1.673-1.413c.16-1.1 1.354-1.963 2.629-2.749z"/>
        <path fill="#202020" fill-rule="nonzero" d="M110.088 265.425c.079-.08.079-.158.316-.158.632-.236 1.58-.315 2.292.079.71.473 1.185 1.34 1.185 2.918 0 .079 0 .315-.08.394-1.659 1.893-3.16 4.022-4.503 6.309-5.531 8.99-8.85 19.399-10.114 29.966-.237 2.68-.632 5.283-.553 7.964l-.08 4.022c0 1.34.159 2.681.159 4.022l.237 4.022.474 4.021.474 4.022.711 3.943c1.027 5.284 2.45 10.41 4.504 15.298.474 1.262 1.027 2.445 1.58 3.628.316.63.632 1.183.949 1.735l.474.867.474.868c1.343 2.287 2.844 4.337 4.583 6.15 3.476 3.707 7.901 6.388 12.721 7.098.158 0 .316.079.474.079h.633l.553.079c.316.078.71.078 1.106.078h1.106l1.106-.078h1.107c.316 0 .79 0 1.264-.08.474-.078 1.027-.157 1.58-.236 2.292-.394 5.215-1.262 7.586-2.208 1.975-.867 3.24-1.498 4.109-1.814.79-.315 1.185-.236 1.106.08 0 .315-.474.946-1.106 1.655-.711.71-1.66 1.656-2.845 2.445.316-.079-2.528 1.892-5.926 3.233-1.66.63-3.477 1.183-4.82 1.42-.711.157-1.264.236-1.66.315-.395.079-.632.079-.632.079-.869.079-1.738 0-2.607 0-.474 0-.87-.08-1.264-.08h-.712c-.158 0-.395-.078-.553-.078-.71-.158-1.501-.237-2.212-.473-2.924-.71-5.69-1.972-8.139-3.628-2.45-1.656-4.583-3.706-6.48-5.835-1.896-2.208-3.397-4.574-4.82-7.097l-1.027-1.893c-.316-.63-.632-1.262-.869-1.892-.632-1.262-1.106-2.603-1.66-3.865-1.974-5.204-3.397-10.566-4.424-16.008l-.395-2.05c-.158-.71-.237-1.34-.316-2.05l-.553-4.1-.237-2.051c-.08-.71-.158-1.34-.237-2.05l-.237-4.101c-.316-5.52 0-11.04.632-16.56 1.422-10.962 4.82-21.844 10.746-31.386 1.343-2.523 3.003-4.81 4.82-7.018z"/>
        <path fill="#202020" fill-rule="nonzero" d="M249.144 185.61c.078-.079.078-.079.314-.158 1.26-.315 3.62-.078 3.226 3.23 0 .079-.078.315-.157.394-1.495 1.418-2.911 2.915-4.327 4.412l-1.102 1.103-4.091 4.332-6.058 6.46c-8.104 8.665-16.05 17.41-23.997 26.233l-5.98 6.617-2.99 3.309-1.494 1.654-.708.788-.394.472c-.236.237-.472.63-.786.71l-16.13 8.113-31.785 15.992-16.523 8.272-1.022.472c-.158.08-.315.237-.472.237l-.472-.315-.945-.71-.472-.314-.393-.237c-.55-.394-1.102-.709-1.731-.945-1.18-.63-2.36-1.024-3.54-1.34-2.44-.55-4.564-.157-6.137 1.34-1.574 1.497-2.754 4.018-3.383 6.538-.315 1.26-.551 2.6-.63 3.94-.079 1.338-.079 2.756.079 4.096.472 5.435 2.36 10.87 5.429 15.44 2.124 3.072 4.799 5.672 7.867 7.484 3.147 1.812 6.688 2.678 10.307 2.678l2.833-.157c.472 0 .944-.08 1.416-.158l1.416-.236c1.888-.237 3.776-.71 5.743-1.103 1.889-.473 3.777-1.024 5.665-1.497 1.888-.63 3.777-1.182 5.665-1.812 7.474-2.52 14.949-5.514 22.187-8.744 3.62-1.654 7.317-3.309 10.858-5.042l2.675-1.339.236-.079c.078-.078.236-.078.314-.157l.551-.158c.158 0 .236-.079.394-.157.314-.158.55-.315.786-.473.551-.394.944-.867 1.26-1.497.157-.315.235-.63.393-.945.078-.394.236-.71.236-1.103.078-.394.078-.788.078-1.182v-.63V288.887l-.078-.71-.158-1.417v-.315c.079-.08.236-.158.315-.237l.63-.394 1.258-.787.708-.473c1.653-1.103 3.305-2.206 4.878-3.387 3.226-2.285 6.373-4.727 9.52-7.248 1.574-1.26 3.069-2.52 4.564-3.781.786-.63 1.573-1.26 2.124-1.97l.944-.945c.315-.315.63-.709.944-1.103.63-.709 1.26-1.418 1.888-2.206l1.889-2.284c1.259-1.497 2.439-3.151 3.619-4.727 4.8-6.38 9.441-12.92 13.926-19.537 2.282-3.308 4.485-6.617 6.766-9.925l5.193-7.8 2.282-3.544s4.484-5.987 7.789-10.005c.708-.867 1.258-1.576 1.73-2.127.473-.551.866-1.024 1.18-1.26.63-.552.945-.63 1.024-.316.157.63-.551 2.836-1.81 5.357.236-.236-1.338 2.758-2.911 5.672l-3.305 5.987-1.967 2.994-5.192 7.878c-2.203 3.387-4.485 6.696-6.767 10.004-4.563 6.618-9.205 13.235-14.083 19.695-1.259 1.575-2.439 3.23-3.698 4.805l-1.888 2.363c-.63.788-1.338 1.576-2.046 2.364-.393.393-.629.787-1.022 1.181l-1.18 1.182c-.787.788-1.574 1.418-2.36 2.127-1.574 1.339-3.148 2.6-4.722 3.86-3.147 2.52-6.372 5.042-9.677 7.405-1.652 1.182-3.304 2.363-5.035 3.466l-.551.315v1.182c0 .551-.079 1.182-.157 1.812-.315 2.363-1.495 5.12-3.698 6.775-.551.393-1.102.787-1.731 1.024-.315.157-.63.236-1.023.394l-.157.078s-.079.08-.158.08l-2.753 1.338c-3.62 1.733-7.317 3.467-11.015 5.042-7.396 3.23-14.95 6.302-22.66 8.902-1.888.709-3.855 1.26-5.822 1.89-1.967.552-3.934 1.103-5.98 1.576-2.045.394-4.012.945-6.136 1.182l-1.574.236c-.55.079-1.022.158-1.573.158l-3.226.157c-4.406.079-8.97-1.024-12.746-3.308-3.855-2.206-7.002-5.357-9.52-8.981-1.81-2.678-3.226-5.514-4.248-8.508-1.023-2.993-1.731-6.145-2.046-9.296-.157-1.575-.157-3.23-.079-4.805.08-1.576.315-3.23.708-4.805.394-1.576.945-3.152 1.731-4.648.787-1.497 1.731-2.994 3.147-4.333.63-.63 1.495-1.182 2.282-1.654.866-.394 1.81-.788 2.675-.946 1.888-.394 3.777-.315 5.429.08 1.73.393 3.304 1.023 4.72 1.732.709.394 1.417.788 2.125 1.26l.079.08 15.263-7.642 31.786-15.992 15.657-7.877 11.487-12.762c7.946-8.823 15.971-17.568 24.075-26.233l6.058-6.539 4.17-4.332 1.102-1.103c1.888-1.655 3.383-3.151 4.878-4.648z"/>
        <path fill="#202020" fill-rule="nonzero" d="M198.8 295.543c.076.079.153.079.229.236.305.55.534 1.337.457 2.124 0 .393-.152.865-.533 1.18-.382.393-.916.707-1.755.865h-.457c-.687-.315-1.297-.708-1.907-1.102-.61-.393-1.22-.786-1.755-1.18l-1.678-1.336-1.601-1.416c-3.966-3.775-6.941-8.652-8.924-13.685-.305-.708-.61-1.495-.84-2.203l-.686-2.438s-.076-.472-.229-1.258c-.076-.236-.076-.393-.152-.63 0-.235-.076-.471-.076-.786-.077-.55-.153-1.18-.153-1.809-.076-.629-.152-1.337-.152-2.045-.077-.708 0-1.494 0-2.202s0-1.494.076-2.202c0-.708 0-1.416.152-2.124.534-4.483.992-5.82 1.45-5.348.457.472.839 2.753 1.144 5.427 0-.079 0 .079.076.393.076.315.152.787.229 1.337.076.55.229 1.259.305 2.045.076.393.152.787.152 1.18l.23 1.18c.38 1.573.762 3.146 1.067 4.325.381 1.18.686 1.888.686 1.888l.458 1.73.687 1.73c1.754 4.484 4.347 8.652 7.703 11.956l1.373 1.258 1.45 1.101c.457.315.99.708 1.525 1.023.381.157.915.472 1.449.786z"/>
        <path fill="#231F20" fill-rule="nonzero" d="M283.313 207.237s-34.935 1.972-36.929-23.268c0 0 19.541-18.535 21.376-22.085-.24-2.918-5.823-7.65-6.381-15.38-.558-7.73 1.755-19.56 5.184-20.902 3.43-1.34 6.142-.946 7.737 1.972 0 0 3.749-4.496 9.013-3.786 5.344.631 3.829-1.577 7.02-2.524 3.19-.946 6.54-1.577 9.331 2.76 2.792 4.339 6.54 15.933 5.344 22.322-1.196 6.389-4.387 13.566-8.215 17.589-3.829 4.023-3.59 4.101-4.626 7.178-1.117 2.997-8.854 36.124-8.854 36.124z"/>
        <path stroke="#231F20" stroke-linecap="round" stroke-width="7" d="M116.708 160.437s-8.328 1.827-13.965 6.976M130.673 159.44s4.428.744 13.965 3.987"/>
        <path fill="#231F20" fill-rule="nonzero" d="M113.217 168.41c-5.985 0-5.985 8.968 0 8.968s5.985-8.969 0-8.969zM135.162 168.41c-5.985 0-5.985 8.968 0 8.968s5.985-8.969 0-8.969z"/>
        <path fill="#202020" fill-rule="nonzero" d="M130.655 181.017s0-.078.075-.156c.224-.31.598-.855 1.196-1.321.598-.544 1.42-1.01 2.467-1.166h.224c0 .078.598.933 1.345 2.332.673 1.399 1.57 3.264 2.168 5.44.3 1.088.449 2.176.523 3.342v.855c0 .31-.074.544-.074.855-.075.544-.225 1.088-.374 1.554-.15.466-.374.855-.523 1.244-.225.388-.374.699-.524.932-.373.466-.598.7-.598.7s-.15.155-.448.388c-.15.078-.3.233-.523.389-.225.078-.449.233-.673.31-.972.467-2.242.7-3.214.545-1.645-.078-2.093-.7-2.018-1.166.074-.466.672-.933 1.345-1.399-.075 0 .748-.466 1.346-1.088.149-.155.299-.31.373-.466.15-.156.225-.311.3-.389.149-.233.149-.389.224-.389 0 0 .074-.077.224-.31.15-.234.299-.467.373-.933 0-.078.075-.233.075-.31 0-.156 0-.234.075-.39.075-.233 0-.544 0-.854-.075-.7-.15-1.4-.374-2.177-.374-1.554-1.121-3.186-1.719-4.352-.299-.622-.598-1.088-.747-1.399-.449-.388-.524-.621-.524-.621zM113.716 202.769c0-.085 0-.085.08-.17.162-.427.646-1.023 1.373-1.45.727-.426 1.695-.767 2.826-.852h.242s.162.256.404.682c.242.426.565 1.023 1.05 1.62.484.681 1.049 1.363 1.695 2.045.323.34.726.682 1.05 1.023.403.255.726.596 1.13.852.807.511 1.615.852 2.422 1.108.727.17 1.695.255 2.422.34h.969c.323 0 .565 0 .727-.085.242 0 .323-.085.484-.085H132.205c.807 0 1.937-.17 2.826-.426 1.534-.511 2.18-.852 2.502-.426.323.511 0 1.704-.888 2.812.162 0-.969 1.194-2.422 2.046-.323.17-.726.426-1.05.511-.322.17-.726.256-.968.426-.565.17-.97.341-.97.341s-.322.086-.887.086c-.323 0-.646.085-1.05.085h-1.292c-.484 0-.968-.085-1.534-.17-.565-.086-1.21-.256-1.857-.342-1.21-.426-2.583-.937-3.714-1.704-2.341-1.534-4.037-3.58-5.248-5.199-1.291-1.79-1.857-2.983-1.937-3.068zM150.666 317.557c0-.078 0-.157.16-.314.717-1.024 2.631-2.52 4.625.157 0 .079.16.315.16.394-.16 2.754-.32 5.43-.479 8.107-1.355 18.969-3.27 37.86-6.54 56.592-.797 4.723-1.754 9.367-2.871 14.01l-.877 3.464c-.32 1.18-.559 2.361-.957 3.463-.718 2.283-1.356 4.644-2.074 6.927l-5.902 18.575s-2.712 6.927-5.025 11.728c-3.669 8.186-3.669 4.487-2.552-.944-.24.55 3.11-12.83 3.11-12.83l6.142-19.363c2.791-8.658 4.705-17.71 6.22-26.84 3.111-18.182 4.946-36.679 6.302-55.176.239-2.597.398-5.273.558-7.95z"/>
        <path fill="#231F20" fill-rule="nonzero" d="M133.666 441.211s-13.667 26.98-65.333 21.538c-51.667-5.443-54.748-26.28-54.748-26.28s-10.823 6.064-9.48 16.716c1.343 10.652 6.557 15.006 14.773 19.205 8.137 4.12 100.173 35.377 114.788-31.179z"/>
        <path fill="#202020" fill-rule="nonzero" d="M140.862 437.128c.078.079.078.079.157.236.235.55.471 1.257.392 2.043 0 .786-.55 1.73-2.356 2.044h-.471c-1.414-.786-2.75-1.808-3.85-3.065-1.1-1.258-1.885-2.83-2.435-4.402-.157-.472-.235-.943-.314-1.336-.079-.236-.079-.472-.157-.708l-.079-.707c0-.472-.078-.944-.078-1.337l.078-1.336c.079-.864.315-1.729.472-2.515.157-.865.471-1.572.785-2.437 1.179-3.065 2.75-6.052 5.106-8.489 1.179-1.257 2.514-2.358 4.006-3.223 1.493-.864 3.143-1.572 4.87-1.965 1.729-.393 3.536-.471 5.342-.235.472.078.943.157 1.414.314l.707.236c.236.078.472.157.707.314.236.157.472.157.707.393l.707.472c.472.314.707.629 1.1.943 1.335 1.415 2.357 3.223 2.75 5.11 0 0 0 .156.078.392.078.236.078.63.078 1.18.079.943-.078 2.279-.392 3.694-.707 2.83-2.514 5.738-4.242 7.86-.707.943-1.336 1.572-1.885 2.122-.55.55-1.022.865-1.336 1.18-.707.47-1.021.55-1.1.156-.078-.707 1.022-2.672 2.121-5.03-.235.236 1.414-2.594 2.043-5.502.314-1.415.392-2.909.235-3.852-.078-.236-.078-.472-.078-.629-.079-.157-.079-.314-.157-.471 0-.158-.079-.236-.079-.315 0-.078-.078-.078-.078-.078-.236-.865-.707-1.651-1.414-2.28-1.1-1.336-3.85-1.572-6.206-1.022-1.178.236-2.357.786-3.456 1.415-1.022.708-2.121 1.415-2.985 2.437-1.807 1.886-3.143 4.323-4.085 6.838-.943 2.516-1.336 5.11-.707 7.31.314.944.785 1.808 1.414 2.594.864.472 1.728 1.18 2.67 1.65z"/>
        <path stroke="#231F20" stroke-linecap="round" stroke-width="7" d="M151.122 408.566L151.122 365.717M151.122 263.077L151.122 225.21M145.39 118.584s-2.74-42.807 2.24-40.787"/>
        <path stroke="#231F20" stroke-linecap="round" stroke-width="7" d="M148.765 81.713h-4.263c-5.411 0-9.839-4.245-9.839-9.434v-23.98c0-5.19 4.428-9.435 9.839-9.435h4.263c5.411 0 9.838 4.245 9.838 9.434v23.98c0 5.19-4.427 9.435-9.838 9.435zM147.631 42.85L146.633 0"/>
        <path fill="#202020" fill-rule="nonzero" d="M37.419 286.866c.078-.079.078-.158.234-.236 1.013-.71 3.273-1.498 4.208 1.734 0 .078.078.315 0 .394l-3.117 7.487c-7.091 17.497-14.104 34.994-20.572 52.727-1.636 4.414-3.195 8.827-4.675 13.32-1.48 4.413-2.884 8.906-3.974 13.398-.156.552-.234 1.104-.39 1.655l-.156.788-.078.789c0 .236-.078.551-.078.788V381.05c0 .236 0 .472.078.709.312 1.891 1.091 3.862 2.182 5.753l.545.867.312.473c.234.315.39.63.624.946.39.63.857 1.182 1.324 1.813 0 0 1.013 1.418 2.494 3.389 1.48 1.891 3.584 4.177 5.299 6.147 3.039 3.153 3.896 4.256 3.272 4.414-.623.158-2.727-.867-5.065-2.364.234.236-2.571-1.656-5.143-3.941-1.324-1.104-2.571-2.365-3.506-3.31-.935-.946-1.48-1.656-1.48-1.656-.546-.63-1.014-1.34-1.481-2.049l-.702-1.024-.545-.946-.935-1.655c-1.091-2.286-1.948-4.887-2.104-7.724 0-1.498.234-2.759.468-4.02.155-.63.233-1.182.39-1.812l.389-1.734c1.169-4.65 2.65-9.064 4.13-13.478 1.48-4.413 3.039-8.827 4.675-13.162 6.39-17.496 13.247-34.757 20.338-52.017l3.039-7.803zM6.843 458.19c.079-.078.079-.158.236-.237.55-.397 1.416-.714 2.203-.476.786.238 1.494.952 1.888 2.459 0 .08.078.317 0 .396-1.102 2.3-2.124 4.76-2.91 7.297-3.776 11.421-4.72 23.873-1.417 35.294 1.652 5.711 4.248 11.184 7.709 16.022 3.46 4.838 7.63 9.28 12.192 13.086 4.64 3.807 9.675 7.06 15.181 9.36l2.045.872c.708.317 1.416.476 2.124.714 1.416.475 2.832.872 4.247 1.269 2.91.713 5.821 1.269 8.81 1.506 5.9.556 11.956.238 17.856-.713l1.809-.318c.393-.079.786-.158 1.101-.238.787-.158 1.495-.317 2.281-.555 0 0 1.81-.317 4.169-.793 2.438-.476 5.427-1.269 7.945-1.983 4.168-1.269 5.584-1.586 5.427-.872-.157.634-2.045 2.141-4.484 3.49.315-.08-2.674 1.507-5.899 2.776s-6.607 2.3-6.607 2.3l-2.36.555-1.18.238-1.258.238-2.36.396c-3.147.476-6.214.714-9.36.793-3.147 0-6.293-.158-9.44-.555-3.146-.476-6.214-.952-9.281-1.903-1.573-.397-2.99-.952-4.484-1.428-.708-.238-1.494-.555-2.202-.872-.708-.318-1.495-.556-2.203-.952-5.742-2.617-11.09-6.107-15.889-10.231-4.798-4.125-9.124-8.725-12.664-14.039-3.54-5.314-6.292-11.104-8.023-17.29-.865-3.093-1.416-6.266-1.73-9.438-.315-3.173-.394-6.345-.236-9.597.314-6.345 1.573-12.611 3.618-18.639.865-2.776 1.888-5.393 3.146-7.931z"/>
        <path fill="#202020" fill-rule="nonzero" d="M18.211 482.911c-.079-.078-.158-.078-.237-.233-.792-1.012-1.663-3.19 1.504-4.279.08 0 .317-.077.396-.077l7.682 2.722 18.69 6.612 4.672 1.634 3.089 1.089 2.296.855.555.234c0 .155-.08.388-.159.544l-.396 1.167-3.484 10.657-1.98 6.145-.95 3.033c0 .156-.159.156-.317.156h-.396l-.792.078-1.663.155-3.326.234-13.067 1.089-4.593.389-.95.077h-.238c-.08 0-.08-.077-.159-.155l-.316-.39-1.188-1.477-1.188-1.556-4.752-5.99-5.623-7.078-.396-.544-.95-1.245c.08-.311.317-.856.475-1.4.08-.311.238-.622.317-.934.08-.155.158-.389.238-.544.316-.778.712-1.711 1.108-2.8.792-2.1 1.822-4.434 2.693-6.457 3.484-8.167 3.564-4.511 2.534.934.08-.234-.317 1.789-.871 4.278-.238 1.245-.554 2.567-.871 3.812-.159.622-.238 1.244-.396 1.789-.08.389-.08.233 0 .31h.08c0-.077.157.156.157.156l5.544 7.001 4.593 5.834 1.03 1.322 3.168-.233 13.067-1.089 3.167-.233v-.078l1.98-6.145 2.534-7.934-6.256-2.256-18.69-6.612-7.365-2.567zM98.245 480.28c-.078 0-.157.079-.314 0-.63-.16-1.494-.558-1.888-1.274-.393-.717-.471-1.751.394-3.105 0-.08.157-.238.314-.318 2.517-.876 4.954-1.83 7.392-2.866 6.92-2.945 13.605-6.447 19.66-10.825 6.055-4.299 11.56-9.473 15.256-15.761.393-.637.708-1.194 1.023-1.83.314-.638.707-1.274.943-1.911 0 0 .157-.398.55-1.035.158-.318.394-.716.551-1.194.157-.478.393-.955.63-1.512.078-.24.235-.558.314-.876.078-.318.157-.637.314-.955.158-.637.394-1.274.63-1.91.235-1.354.707-2.707.786-3.98.314-2.15.393-3.583.55-4.458.158-.876.394-1.115.63-.876.235.239.55.876.865 1.831.157.478.314 1.035.393 1.672.078.636.157 1.353.236 2.07 0-.08 0 .079.078.397 0 .16 0 .398.079.637v.876c0 .636-.079 1.432-.079 2.228-.078.796-.236 1.752-.314 2.627-.079.876-.393 1.751-.55 2.627-.237.796-.394 1.592-.63 2.229-.472 1.273-.786 2.149-.786 2.149l-.944 1.83-.472.956-.55.876c-4.247 7.084-10.223 12.656-16.593 17.273-6.449 4.617-13.369 8.278-20.604 11.303-2.674 1.194-5.19 2.229-7.864 3.104zM211.374 445.759c-.08 0-.158 0-.237-.16-.395-.48-.79-1.198-.869-1.997-.079-.798.237-1.837 1.974-2.475.08 0 .316-.08.474-.08 2.922.878 5.844 2.236 8.134 4.712 1.816 1.836 3.001 4.392 3.396 6.947.395 2.556.158 5.032-.474 7.348-.158.559-.316 1.118-.553 1.757l-.316.878c-.079.32-.237.56-.394.879l-.395.798c-.158.24-.316.56-.474.799l-.474.799c-.158.24-.316.479-.553.718-1.421 1.917-3 3.594-4.738 5.032-3.475 2.954-7.186 5.19-11.135 7.187-3.87 1.917-7.897 3.594-12.003 4.952-8.213 2.715-16.663 4.552-25.27 5.19-2.133.16-4.344.24-6.476.24-2.211 0-4.264-.16-6.476-.24-4.264-.319-8.607-.718-12.872-1.756-2.132-.56-4.343-1.198-6.554-2.396-1.106-.56-2.132-1.358-3.159-2.396-.948-1.038-1.737-2.396-2.053-3.913-.316-1.518-.237-2.955.079-4.313.316-1.357.79-2.476 1.342-3.514 1.185-2.156 2.527-3.913 3.949-5.59 2.922-3.434 6.317-6.31 9.871-8.785 3.554-2.555 7.265-4.792 11.214-6.708 7.739-3.913 16.03-6.629 24.56-8.226l2.29-.4 1.263-.16 2.448-.319s.474 0 1.264-.08 1.974 0 3.237.08c2.606 0 5.844.4 8.53.879 4.5.958 5.685 1.597 5.211 1.997-.553.399-2.764.638-5.528.718.158 0-.631.08-1.816.16-.553 0-1.264.08-2.053.16-.79.08-1.58.08-2.37.16-1.658.239-3.316.399-4.5.558-1.264.24-2.054.4-2.054.4l-2.29.24c-.395 0-.79.08-1.106.16l-4.422.798c-7.818 1.757-15.478 4.552-22.585 8.305-3.475 1.997-6.95 4.073-10.108 6.47-3.16 2.475-6.081 5.19-8.45 8.225-1.185 1.517-2.211 3.115-2.764 4.712-.316.798-.474 1.517-.395 2.156 0 .639.158 1.198.474 1.677.632 1.038 2.053 1.997 3.79 2.715 1.659.72 3.554 1.198 5.45 1.598 3.869.798 7.896 1.118 11.924 1.357 1.026.08 2.053.08 3.08.16 1.026 0 1.974.08 3 0 1.975 0 4.028-.16 6.002-.32 7.976-.718 15.952-2.555 23.612-5.11 3.79-1.358 7.581-2.876 11.135-4.712 3.554-1.837 6.95-3.993 9.871-6.55 1.422-1.277 2.764-2.635 3.79-4.152.553-.719.948-1.517 1.343-2.316.395-.798.632-1.597.869-2.476.474-1.836.553-3.593.316-5.19-.316-1.598-.948-3.035-2.132-4.233-1.422-1.598-3.633-2.716-5.844-3.354z"/>
        <path stroke="#231F20" stroke-linecap="round" stroke-width="7" d="M150.623 399.592s26.525-12.243 48.628 12.874c22.104 25.118 4.737 67.849 4.737 67.849"/>
        <ellipse cx="202.494" cy="482.308" fill="#FFF" fill-rule="nonzero" rx="6.983" ry="6.976"/>
        <path fill="#202020" fill-rule="nonzero" d="M218.576 455.54c0-.08 0-.158.08-.317.554-1.187 2.06-3.008 4.517-.712.08.079.238.237.238.316l1.189 8.076 9.51 65.639 1.19 8.234.633 4.118.317 2.058.08.475v.238c0 .079 0 .079.079.316v.792c0 .238 0 .475-.08.713-.475 3.484-2.14 6.334-4.12 8.71-.476.633-1.031 1.108-1.586 1.662-.555.554-1.11 1.109-1.744 1.504l-1.822 1.346-1.903 1.188c-5.072 3.009-10.541 4.91-16.01 6.414-2.774.633-5.469 1.346-8.322 1.741l-4.2.713c-1.427.238-2.775.317-4.201.554-5.628.634-11.334.95-17.04.396l-2.14-.237-1.11-.159-1.11-.237-2.14-.396-2.14-.554c-2.853-.871-5.706-2.059-8.243-4.038-.634-.555-1.268-1.03-1.823-1.742-.158-.159-.317-.317-.396-.475-.158-.159-.238-.317-.396-.555-.159-.237-.397-.554-.476-.87l-.238-.713-1.268-3.96-2.536-7.838-5.152-15.756-12.126-37.451s-1.823-7.284-2.774-12.51c-1.744-8.789.396-5.78 2.615-.713-.079-.554 4.994 12.273 4.994 12.273l13.077 40.064 5.073 15.519 2.536 7.759.475 1.504.159.159.238.237.555.554c.792.713 1.743 1.426 2.774 1.98 2.06 1.188 4.517 1.9 6.974 2.454 1.268.238 2.537.475 3.805.634l1.902.237 1.981.08 1.982.079h1.981c1.348 0 2.616 0 3.963-.159 1.348-.079 2.616-.158 3.963-.316l3.963-.475c1.347-.159 2.615-.396 3.963-.634l3.963-.712c1.268-.238 2.615-.555 3.883-.871 1.269-.317 2.616-.555 3.805-1.03l3.804-1.187 3.646-1.426c.634-.237 1.189-.554 1.744-.791l1.743-.871c.634-.238 1.11-.634 1.665-.95l1.585-.95c1.981-1.426 3.963-3.01 5.31-4.91l.951-1.425c.238-.475.555-1.03.714-1.504l.237-.792c.08-.237.08-.475.159-.792.08-.237.08-.475.08-.712v-.317c0-.08 0 .08 0 0v-.238l-2.379-16.073-9.352-64.45-1.268-7.918zM335.247 73.113c-.08-.08-.08-.08 0-.237.078-.474.236-1.185.55-1.896.08-.158.158-.395.316-.553.157-.158.315-.316.55-.474.473-.237 1.182-.316 2.205.079.08 0 .394.237.473.316 1.102 1.58 1.496 3.555 1.417 5.293 0 .869-.157 1.738-.315 2.528-.236.79-.472 1.58-.787 2.29-1.102 2.608-2.677 4.82-4.33 6.795-1.654 1.975-3.465 3.792-5.355 5.53-3.78 3.397-7.795 6.32-11.81 9.164-2.048 1.422-4.016 2.765-5.985 4.187-.472.316-.945.711-1.417 1.027-.472.316-.945.711-1.26 1.106l-.551.553-.472.474c-.158.158-.158.237-.237.395l-.078.079-.08.158-.157.395c-.944 2.054-1.732 4.266-2.362 6.557l-.472 1.66-.158.473c-.078.316-.157.553-.236.711-.157.395-.315.711-.472 1.027-.709 1.264-1.575 2.37-2.441 3.397-1.811 2.054-3.858 3.713-6.063 5.135-2.126 1.422-4.41 2.686-6.693 3.792-1.18.553-2.283 1.027-3.385 1.58l-3.307 1.501c-2.205 1.027-4.41 2.054-6.614 3.16-4.41 2.133-8.74 4.266-12.992 6.557l-.079.08-.157.157-.552.553c-.393.395-.708.79-1.023 1.185-.63.79-1.181 1.66-1.496 2.528-.315.87-.394 1.58-.236 2.212 0 .08 0 .158.078.237l.079.237c.079.158.079.316.157.395.158.237.315.395.473.474.315.237 1.102.395 2.047.237.945-.079 1.969-.395 2.992-.79 2.047-.71 4.173-1.817 6.22-2.923 1.024-.553 2.048-1.185 3.071-1.817 1.103-.632 2.126-1.264 3.229-1.896 2.125-1.185 4.33-2.37 6.456-3.555 4.33-2.37 8.661-4.66 12.992-6.873l6.535-3.397 2.283-1.185c.08 0 .158-.079.237-.079l.236.08.472.078.866.158.945.158 3.544.632c2.362.395 4.803.79 7.086 1.027.315 0 .551.08.866.08.315 0 .551 0 .787.078.315 0 .394-.079.552-.079h.236l.394-.079c1.102-.237 2.204-.632 3.385-.948 4.567-1.422 9.213-3.002 13.78-4.582 4.566-1.58 9.212-3.239 13.7-4.977 2.283-.869 4.567-1.738 6.771-2.607 1.103-.474 2.284-.869 3.307-1.343.079-.079.315-.158.394-.158.079 0 .157-.079.236-.079l.079-.079c.079.08-.079-.158.079.08-.158-.159 1.338 1.974-.08-.159l.158-.079c.158-.158.394-.237.63-.316.237-.079.394-.237.551-.237l.394-.158c.079 0 0 0 0 0v-.079l.079-.158.079-.158c0-.158.078-.237.078-.395.08-.316.08-.632.158-1.027.079-.316.079-.711.079-1.106.078-.711.078-1.501.157-2.291l.079-1.185v-.948c-.079-1.264-.394-2.686-.788-4.108-.393-1.422-.866-2.844-1.417-4.187-2.205-5.61-5.197-10.981-8.74-15.88l-.787-1.026-.315-.474-.709-.87c-.472-.631-.945-1.184-1.417-1.737 0 0-.236-.395-.709-.948-.472-.632-1.102-1.422-1.89-2.37-1.574-1.817-3.621-4.03-5.59-5.61-1.653-1.263-2.913-1.974-3.622-2.37-.708-.473-.866-.71-.63-.947.158-.08.394-.158.709-.158.315 0 .787 0 1.339.079.55.079 1.102.158 1.732.395.63.158 1.26.474 1.968.79-.079-.08.079 0 .394.158s.787.395 1.338.71c1.103.633 2.599 1.66 3.937 2.766 2.756 2.212 5.197 4.898 5.197 4.898.473.553.945 1.185 1.417 1.738l.709.869.315.474.866 1.185c.394.632.866 1.264 1.26 1.896 3.307 5.056 6.141 10.349 8.267 16.037.552 1.422 1.024 2.923 1.418 4.424.393 1.501.708 3.081.708 4.898v1.185l-.078 1.106c0 .79-.08 1.501-.158 2.291-.079.79-.157 1.58-.315 2.45-.079.473-.157.868-.394 1.5-.078.237-.236.632-.472.948-.157.316-.394.632-.63.87-.394.473-1.023.79-1.496 1.026l-.472.237c-.158.08-.237.08-.237.158-.078 0-.157.08-.157.08l-.472.236-.63.316c-.237.08-.315.158-.473.237-1.18.553-2.362.948-3.464 1.422-2.284.87-4.567 1.738-6.93 2.607-4.566 1.738-9.212 3.397-13.857 4.977-4.646 1.58-9.291 3.24-14.015 4.661-1.182.316-2.363.711-3.701 1.027l-.473.08-.63.078c-.472.08-.944.158-1.26.08-.393 0-.708 0-1.023-.08-.315 0-.63-.079-.945-.079-2.52-.237-4.96-.632-7.401-1.027l-3.622-.632-.866-.158-.945.474-6.457 3.397c-4.33 2.291-8.66 4.582-12.913 6.873-2.126 1.185-4.251 2.291-6.377 3.555-1.024.632-2.126 1.185-3.071 1.817-1.024.632-2.126 1.264-3.228 1.896-2.205 1.264-4.489 2.37-7.008 3.318-1.26.474-2.598.87-4.095 1.027-.708.08-1.574.08-2.44 0-.867-.079-1.811-.395-2.677-.869-.867-.553-1.575-1.264-2.126-2.054-.237-.395-.394-.79-.63-1.264-.08-.237-.158-.395-.237-.632l-.157-.632c-.394-1.738-.079-3.555.472-4.977.552-1.422 1.339-2.686 2.205-3.792.394-.553.866-1.106 1.339-1.58l.708-.71.236-.159.315-.316c.08-.079.237-.158.394-.237l.315-.158c4.33-2.29 8.74-4.503 13.15-6.636 2.204-1.106 4.409-2.133 6.692-3.16l3.386-1.5c1.102-.475 2.283-1.028 3.307-1.502 2.126-1.027 4.173-2.133 6.063-3.397 1.89-1.264 3.7-2.686 5.118-4.345.708-.79 1.338-1.659 1.81-2.528.08-.237.237-.395.316-.553.078-.079.078-.158.078-.158l.079-.395c.157-.632.315-1.264.472-1.817.71-2.449 1.496-4.819 2.678-7.268l.236-.474.078-.237.158-.316c.236-.395.551-.869.787-1.106l.788-.869c.236-.316.55-.474.787-.711.551-.474 1.024-.869 1.496-1.264.473-.395 1.024-.79 1.496-1.185 2.047-1.501 4.095-2.844 6.063-4.266 3.937-2.765 7.874-5.61 11.338-8.77 1.733-1.58 3.386-3.238 4.882-4.976 1.496-1.738 2.756-3.634 3.543-5.53.709-2.528.788-4.582-.078-5.925z"/>
        <path fill="#231F20" fill-rule="nonzero" d="M306.271 111.27l13.763 25.251 11.138-3.156s-7.956-23.278-17.343-31.722c0 0-7.478 4.656-8.592 6.787l1.034 2.84z"/>
        <path fill="#202020" fill-rule="nonzero" d="M352.273 80.75s0-.075.154 0c.383.075.997.226 1.611.601.69.376 1.381.977 1.995 1.954 0 0 .077.15.077.226 0 .075-.614.902-1.612 2.029-.92 1.127-2.225 2.555-3.606 3.983-1.381 1.353-2.84 2.63-4.067 3.532-.614.451-1.074.827-1.458 1.053-.383.225-.537.375-.537.375s-.153.076-.383.15c-.23.076-.614.226-1.075.376-.844.301-1.995.527-2.992.602-1.612.15-2.149-.226-2.225-.677 0-.45.537-1.127 1.15-1.653-.076 0 .691-.601 1.458-1.278.384-.375.768-.676 1.075-.977l.46-.45s.154-.151.46-.301c.307-.226.691-.526 1.228-.902.998-.752 2.302-1.954 3.53-3.157 1.228-1.202 2.455-2.555 3.3-3.607.92-1.127 1.457-1.879 1.457-1.879zM360.806 94.702s.079-.077.157 0c.782.155 2.58.929 3.127 3.25v.232c-.078.078-1.016 1.006-2.502 2.322-1.485 1.315-3.44 3.018-5.472 4.72-2.033 1.625-4.065 3.25-5.707 4.41-.782.543-1.485 1.007-1.954 1.394-.47.31-.782.541-.782.541s-.782.387-1.876.774c-.547.232-1.173.464-1.876.62-.626.231-1.33.309-1.955.464-2.11.386-2.814.077-2.814-.465 0-.232.235-.541.547-.928.313-.31.704-.697 1.173-1.084-.156 0 1.016-.773 2.11-1.702.548-.464 1.095-.929 1.564-1.316.391-.386.704-.619.704-.619l.703-.464c.47-.31 1.095-.696 1.798-1.238 1.486-1.083 3.44-2.631 5.394-4.179 1.955-1.547 3.83-3.25 5.238-4.488 1.407-1.315 2.345-2.244 2.423-2.244z"/>
        <path fill="#231F20" fill-rule="nonzero" d="M152.618 404.944s-5.602-2.237-13.965 4.39v9.197s4.182-8.202 13.965-5.882v-7.705zM202.447 285.193s-9.798 9.876-19.903-8.165c0 0 7.578 19.052 19.903 17.886 4.594-2.567 0-9.72 0-9.72z"/>
        <path fill="#FFF" fill-rule="nonzero" d="M260.168 182.225c-.079.08-.079.08-.157.08-.626.158-1.8.078-1.643-1.584 0 0 0-.158.079-.238l2.816-2.929L271.9 166.47c.783-.791 1.487-1.82 1.878-2.77.156-.476.313-.95.313-1.426 0-.475-.157-.87-.313-1.187-.235-.317-.548-.634-1.017-.95l-1.643-1.03-.235-.158-.156-.079-.235-.158c-.156-.159-.39-.238-.547-.396-.313-.317-.704-.554-1.017-.871 0 0-.782-.792-1.408-1.98-.704-1.187-1.252-2.85-1.408-4.195-.079-.317-.079-.554-.157-.792 0-.237 0-.475-.078-.633v-.871c0-.396.156-.554.235-.475.156.079.313.396.547.87.078.238.235.476.313.792.157.238.235.555.391.871 0-.158.548 1.346 1.408 2.692.391.633.939 1.267 1.33 1.663.157.237.391.316.47.475.156.079.234.158.234.158.235.237.548.475.782.633.313.238.47.396 1.096.713.547.316 1.095.633 1.642 1.108.313.159.626.475.86.792.314.317.548.712.705 1.108.391.792.47 1.663.391 2.455-.078.791-.313 1.583-.626 2.216-.626 1.346-1.486 2.455-2.425 3.405l-10.482 10.925-2.581 2.85zM251.441 189.336c-.449-.182-1.257-.82-1.975-1.822l-.09-.091c.09-.091 3.412-3.552 3.412-3.552s.718-.364 1.436-.455c1.077-.274 1.256.455 1.077 1.093.09 0-.628 1.366-.628 1.366s-3.142 3.37-3.232 3.46z"/>
        <path fill="#202020" fill-rule="nonzero" d="M56.578 139.888c-.08-.081-.159-.081-.238-.243-.317-.565-.634-1.454-.397-2.262.238-.808.952-1.535 2.537-1.859h.396c2.3 1.212 4.757 2.344 7.214 3.394 13 5.413 27.031 8.484 41.062 9.453l4.44.162s.475.08 1.268.161c.792.081 1.823.162 3.091.243 2.458.161 5.628.565 8.244.646 8.879.404 5.55 1.778 0 2.747.159 0-.634.162-1.823.324-1.189.161-2.933.242-4.598.404-1.743.08-3.487.323-4.756.323-1.347 0-2.22.08-2.22.08l-3.963-.161c-14.586-1.05-29.092-4.12-42.647-9.857-2.537-1.05-5.074-2.182-7.61-3.555z"/>
        <path fill="#FFF" fill-rule="nonzero" d="M53.713 143.857c0 .08 0 .16-.156.24-.39.477-.936 1.034-1.716 1.273-.39.16-.858.16-1.326 0-.467-.239-1.013-.637-1.481-1.353 0-.08-.156-.319-.156-.478.156-3.026.858-5.972 1.871-8.679 1.482-4.06 3.744-7.803 6.473-11.147l1.56-1.831.78-.876.857-.797s.39-.318 1.014-.875c.312-.24.702-.558 1.092-.956.39-.318.936-.637 1.482-1.035.545-.398 1.091-.717 1.715-1.115.312-.159.624-.398.936-.557.312-.16.624-.318.936-.557 1.326-.717 2.651-1.354 3.821-1.911 4.211-1.752 5.537-1.911 5.38-1.195-.233.637-1.949 2.15-4.132 3.663.156-.08-.468.398-1.326 1.115-.468.398-1.014.796-1.638 1.274l-.935.716c-.312.24-.624.558-.858.796-1.17 1.115-2.418 2.15-3.198 3.106-.857.876-1.403 1.513-1.403 1.513-.468.398-.858.875-1.248 1.353l-1.248 1.354c-2.34 2.946-4.289 6.21-5.615 9.714-.78 2.388-1.403 4.857-1.481 7.245zM47.588 150.472h.161c.402 0 .884.218 1.045.51.16.363.08.8-.16 1.382l-.081.146c-1.045.437-2.09 1.092-3.055 1.892-.964.801-1.849 1.674-2.653 2.62-.401.583-.884 1.092-1.286 1.675 0 0-.16.145-.402.436-.24.291-.562.655-.964 1.165-.724.946-1.608 2.11-2.412 3.13-2.331 3.493-2.17 1.82-1.206-.656-.08.146.563-1.31 1.286-2.765.402-.728.804-1.456 1.126-1.965.321-.51.563-.874.563-.874l1.205-1.528c.885-1.02 1.85-2.038 2.894-2.912 1.287-.873 2.492-1.674 3.94-2.256zM222.9 516.225c0-.16 0-.16.077-.321.62-1.206 2.247-2.895 4.494-.483.078.08.233.242.233.402.232 2.734.465 5.549.62 8.363.232 5.066.155 10.293-1.008 15.439-.387 1.608-.775 3.216-1.394 4.744 0 0-.078.08-.155.322-.078.24-.233.563-.465.884-.388.804-1.008 1.85-1.782 2.975-.775 1.126-1.86 2.332-3.022 3.378-1.162 1.045-2.48 1.93-3.642 2.573-1.007.563-1.937.965-2.634 1.125-.698.242-1.318.322-1.705.402-.852.08-1.162-.08-1.007-.402.232-.643 2.17-1.769 4.029-3.538-.155.08.387-.402 1.162-1.206.775-.804 1.705-2.01 2.557-3.297.852-1.286 1.472-2.734 1.86-3.86.232-.562.387-1.045.465-1.366.077-.322.154-.483.154-.483.388-1.125.698-2.332 1.008-3.538 1.007-4.503 1.085-9.327.852-14.152-.155-2.412-.465-5.146-.697-7.96z"/>
        <path stroke="#FFF" stroke-linecap="round" stroke-width="7" d="M221.446 498.252c1.089 2.938 2.04 5.953 2.993 8.968"/>
        <path fill="#202020" fill-rule="nonzero" d="M59.957 270.195c-.08 0-.08-.078-.08-.156-.078-.467 0-1.168.395-1.87.236-.311.473-.7.867-1.012.315-.312.709-.701 1.182-1.013 0 0 .157-.078.236-.078 0 0 .237.156.71.39.394.234 1.103.545 1.89.857 1.577.623 3.862 1.246 6.148 1.558.552.077 1.182.155 1.734.155.315 0 .551.078.867.078h.866c.552 0 1.104 0 1.577.078.472 0 1.024 0 1.418-.078.473 0 .867 0 1.182-.078.394 0 .71-.078.946-.078.552-.077.788-.077.788-.077s.158 0 .552.077c.315 0 .788.078 1.34.078 1.103.078 2.442.156 3.624.312 3.94.234 2.759 1.558.473 2.648.158 0-1.26.545-2.758 1.013-1.497.467-2.995.779-2.995.779s-.315 0-.866.078c-.552.077-1.34.077-2.365.155-1.97.078-4.57 0-7.171-.39-2.6-.31-5.201-1.012-7.172-1.79-1.97-.78-3.31-1.558-3.388-1.636z"/>
    </g>
</svg>
