<?xml version="1.0" encoding="UTF-8"?>
<svg width="60px" height="60px" viewBox="0 0 60 60" version="1.1" xmlns="http://www.w3.org/2000/svg" xmlns:xlink="http://www.w3.org/1999/xlink">
    <!-- Generator: Sketch 60 (88103) - https://sketch.com -->
    <title>default avater</title>
    <desc>Created with Sketch.</desc>
    <g id="City-Guide" stroke="none" stroke-width="1" fill="none" fill-rule="evenodd">
        <g id="10_Member_Dashboard_Profile" transform="translate(-135.000000, -289.000000)">
            <g id="Profile" transform="translate(0.000000, 140.000000)">
                <g id="change-avatar" transform="translate(135.000000, 109.000000)">
                    <g id="default-avater" transform="translate(0.000000, 40.000000)">
                        <circle id="Oval" fill="#F5F5F5" cx="30" cy="30" r="30"></circle>
                        <path d="M21,42.875 C21,41.234375 21.4042969,39.7285156 22.2128906,38.3574219 C23.0214844,36.9863281 24.1113281,35.8964844 25.4824219,35.0878906 C26.8535156,34.2792969 28.359375,33.875 30,33.875 C31.640625,33.875 33.1464844,34.2792969 34.5175781,35.0878906 C35.8886719,35.8964844 36.9785156,36.9863281 37.7871094,38.3574219 C38.5957031,39.7285156 39,41.234375 39,42.875 L41.25,42.875 C41.25,41.3515625 40.9570312,39.8984375 40.3710938,38.515625 C39.8085938,37.1796875 39.0058594,35.9960938 37.9628906,34.9648438 C36.9199219,33.9335938 35.7304688,33.125 34.3945312,32.5390625 C35.4726562,31.8125 36.3222656,30.875 36.9433594,29.7265625 C37.5644531,28.578125 37.875,27.3359375 37.875,26 C37.875,24.5703125 37.5234375,23.2519531 36.8203125,22.0449219 C36.1171875,20.8378906 35.1621094,19.8828125 33.9550781,19.1796875 C32.7480469,18.4765625 31.4296875,18.125 30,18.125 C28.5703125,18.125 27.2519531,18.4765625 26.0449219,19.1796875 C24.8378906,19.8828125 23.8828125,20.8378906 23.1796875,22.0449219 C22.4765625,23.2519531 22.125,24.5703125 22.125,26 C22.125,27.3359375 22.4355469,28.578125 23.0566406,29.7265625 C23.6777344,30.875 24.5273438,31.8125 25.6054688,32.5390625 C24.2695312,33.125 23.0800781,33.9335938 22.0371094,34.9648438 C20.9941406,35.9960938 20.1914062,37.1796875 19.6289062,38.515625 C19.0429688,39.8984375 18.75,41.3515625 18.75,42.875 L21,42.875 Z M30,31.625 C28.96875,31.625 28.0253906,31.3730469 27.1699219,30.8691406 C26.3144531,30.3652344 25.6347656,29.6855469 25.1308594,28.8300781 C24.6269531,27.9746094 24.375,27.03125 24.375,26 C24.375,24.96875 24.6269531,24.0253906 25.1308594,23.1699219 C25.6347656,22.3144531 26.3144531,21.6347656 27.1699219,21.1308594 C28.0253906,20.6269531 28.96875,20.375 30,20.375 C31.03125,20.375 31.9746094,20.6269531 32.8300781,21.1308594 C33.6855469,21.6347656 34.3652344,22.3144531 34.8691406,23.1699219 C35.3730469,24.0253906 35.625,24.96875 35.625,26 C35.625,27.03125 35.3730469,27.9746094 34.8691406,28.8300781 C34.3652344,29.6855469 33.6855469,30.3652344 32.8300781,30.8691406 C31.9746094,31.3730469 31.03125,31.625 30,31.625 Z" id="" fill="#8D8D8D" fill-rule="nonzero"></path>
                    </g>
                </g>
            </g>
        </g>
    </g>
</svg>